<mxfile host="app.diagrams.net" modified="2023-12-09T16:50:26.159Z" agent="Mozilla/5.0 (X11; Linux x86_64) AppleWebKit/537.36 (KHTML, like Gecko) Chrome/119.0.0.0 Safari/537.36" etag="Dg2u73D7j7HvhGqDxxcM" version="22.1.7" type="google">
  <diagram name="Page-1" id="2YBvvXClWsGukQMizWep">
    <mxGraphModel grid="1" page="1" gridSize="10" guides="1" tooltips="1" connect="1" arrows="1" fold="1" pageScale="1" pageWidth="850" pageHeight="1100" math="0" shadow="0">
      <root>
        <mxCell id="0" />
        <mxCell id="1" parent="0" />
        <mxCell id="aM9ryv3xv72pqoxQDRHE-1" value="User" style="shape=umlLifeline;perimeter=lifelinePerimeter;whiteSpace=wrap;html=1;container=0;dropTarget=0;collapsible=0;recursiveResize=0;outlineConnect=0;portConstraint=eastwest;newEdgeStyle={&quot;edgeStyle&quot;:&quot;elbowEdgeStyle&quot;,&quot;elbow&quot;:&quot;vertical&quot;,&quot;curved&quot;:0,&quot;rounded&quot;:0};" vertex="1" parent="1">
          <mxGeometry x="135" y="130" width="170" height="430" as="geometry" />
        </mxCell>
        <mxCell id="_NcEqx5RvNSgbIZXufr2-2" value="Device" style="shape=umlLifeline;perimeter=lifelinePerimeter;whiteSpace=wrap;html=1;container=0;dropTarget=0;collapsible=0;recursiveResize=0;outlineConnect=0;portConstraint=eastwest;newEdgeStyle={&quot;edgeStyle&quot;:&quot;elbowEdgeStyle&quot;,&quot;elbow&quot;:&quot;vertical&quot;,&quot;curved&quot;:0,&quot;rounded&quot;:0};" vertex="1" parent="1">
          <mxGeometry x="362" y="130" width="170" height="430" as="geometry" />
        </mxCell>
        <mxCell id="_NcEqx5RvNSgbIZXufr2-3" value="" style="html=1;points=[];perimeter=orthogonalPerimeter;outlineConnect=0;targetShapes=umlLifeline;portConstraint=eastwest;newEdgeStyle={&quot;edgeStyle&quot;:&quot;elbowEdgeStyle&quot;,&quot;elbow&quot;:&quot;vertical&quot;,&quot;curved&quot;:0,&quot;rounded&quot;:0};" vertex="1" parent="_NcEqx5RvNSgbIZXufr2-2">
          <mxGeometry x="80" y="74" width="10" height="40" as="geometry" />
        </mxCell>
        <mxCell id="_NcEqx5RvNSgbIZXufr2-4" value="1. Open Application" style="html=1;verticalAlign=bottom;startArrow=oval;endArrow=block;startSize=8;edgeStyle=elbowEdgeStyle;elbow=vertical;curved=0;rounded=0;" edge="1" parent="_NcEqx5RvNSgbIZXufr2-2">
          <mxGeometry relative="1" as="geometry">
            <mxPoint x="-142" y="90" as="sourcePoint" />
            <Array as="points" />
            <mxPoint x="80" y="90" as="targetPoint" />
          </mxGeometry>
        </mxCell>
        <mxCell id="_NcEqx5RvNSgbIZXufr2-8" value="" style="html=1;points=[];perimeter=orthogonalPerimeter;outlineConnect=0;targetShapes=umlLifeline;portConstraint=eastwest;newEdgeStyle={&quot;edgeStyle&quot;:&quot;elbowEdgeStyle&quot;,&quot;elbow&quot;:&quot;vertical&quot;,&quot;curved&quot;:0,&quot;rounded&quot;:0};" vertex="1" parent="_NcEqx5RvNSgbIZXufr2-2">
          <mxGeometry x="80" y="143" width="10" height="107" as="geometry" />
        </mxCell>
        <mxCell id="_NcEqx5RvNSgbIZXufr2-26" value="" style="html=1;points=[];perimeter=orthogonalPerimeter;outlineConnect=0;targetShapes=umlLifeline;portConstraint=eastwest;newEdgeStyle={&quot;edgeStyle&quot;:&quot;elbowEdgeStyle&quot;,&quot;elbow&quot;:&quot;vertical&quot;,&quot;curved&quot;:0,&quot;rounded&quot;:0};" vertex="1" parent="_NcEqx5RvNSgbIZXufr2-2">
          <mxGeometry x="80" y="340" width="10" height="30" as="geometry" />
        </mxCell>
        <mxCell id="_NcEqx5RvNSgbIZXufr2-9" value="2. Click Logs" style="html=1;verticalAlign=bottom;startArrow=oval;endArrow=block;startSize=8;edgeStyle=elbowEdgeStyle;elbow=vertical;curved=0;rounded=0;" edge="1" parent="1">
          <mxGeometry relative="1" as="geometry">
            <mxPoint x="220" y="280" as="sourcePoint" />
            <mxPoint x="441" y="280" as="targetPoint" />
          </mxGeometry>
        </mxCell>
        <mxCell id="_NcEqx5RvNSgbIZXufr2-12" value="5. Show Logs" style="html=1;verticalAlign=bottom;endArrow=open;dashed=1;endSize=8;edgeStyle=elbowEdgeStyle;elbow=vertical;curved=0;rounded=0;" edge="1" parent="1">
          <mxGeometry relative="1" as="geometry">
            <mxPoint x="440" y="374" as="sourcePoint" />
            <mxPoint x="220" y="374" as="targetPoint" />
          </mxGeometry>
        </mxCell>
        <mxCell id="_NcEqx5RvNSgbIZXufr2-27" value="6. Close Application" style="html=1;verticalAlign=bottom;startArrow=oval;endArrow=block;startSize=8;edgeStyle=elbowEdgeStyle;elbow=vertical;curved=0;rounded=0;" edge="1" parent="1" target="_NcEqx5RvNSgbIZXufr2-26">
          <mxGeometry relative="1" as="geometry">
            <mxPoint x="220" y="480" as="sourcePoint" />
            <mxPoint x="500" y="511" as="targetPoint" />
            <Array as="points">
              <mxPoint x="255" y="480" />
            </Array>
          </mxGeometry>
        </mxCell>
        <mxCell id="_NcEqx5RvNSgbIZXufr2-28" value="Malware Classification System" style="shape=umlFrame;whiteSpace=wrap;html=1;pointerEvents=0;width=250;height=30;" vertex="1" parent="1">
          <mxGeometry x="80" y="40" width="720" height="550" as="geometry" />
        </mxCell>
        <mxCell id="6XMBsPdUUt4wx-9Tlj5l-2" style="edgeStyle=orthogonalEdgeStyle;rounded=0;orthogonalLoop=1;jettySize=auto;html=1;exitX=0.5;exitY=1;exitDx=0;exitDy=0;" edge="1" parent="1">
          <mxGeometry relative="1" as="geometry">
            <mxPoint x="705" y="170" as="sourcePoint" />
            <mxPoint x="705" y="170" as="targetPoint" />
          </mxGeometry>
        </mxCell>
        <mxCell id="6XMBsPdUUt4wx-9Tlj5l-5" value="Disk" style="shape=umlLifeline;perimeter=lifelinePerimeter;whiteSpace=wrap;html=1;container=0;dropTarget=0;collapsible=0;recursiveResize=0;outlineConnect=0;portConstraint=eastwest;newEdgeStyle={&quot;edgeStyle&quot;:&quot;elbowEdgeStyle&quot;,&quot;elbow&quot;:&quot;vertical&quot;,&quot;curved&quot;:0,&quot;rounded&quot;:0};" vertex="1" parent="1">
          <mxGeometry x="587" y="128" width="170" height="430" as="geometry" />
        </mxCell>
        <mxCell id="6XMBsPdUUt4wx-9Tlj5l-8" value="" style="html=1;points=[];perimeter=orthogonalPerimeter;outlineConnect=0;targetShapes=umlLifeline;portConstraint=eastwest;newEdgeStyle={&quot;edgeStyle&quot;:&quot;elbowEdgeStyle&quot;,&quot;elbow&quot;:&quot;vertical&quot;,&quot;curved&quot;:0,&quot;rounded&quot;:0};" vertex="1" parent="6XMBsPdUUt4wx-9Tlj5l-5">
          <mxGeometry x="80" y="160" width="10" height="80" as="geometry" />
        </mxCell>
        <mxCell id="6XMBsPdUUt4wx-9Tlj5l-15" value="" style="endArrow=classic;html=1;rounded=0;" edge="1" parent="1">
          <mxGeometry width="50" height="50" relative="1" as="geometry">
            <mxPoint x="450" y="309" as="sourcePoint" />
            <mxPoint x="667.5" y="309" as="targetPoint" />
            <Array as="points">
              <mxPoint x="606" y="309" />
            </Array>
          </mxGeometry>
        </mxCell>
        <mxCell id="6XMBsPdUUt4wx-9Tlj5l-16" value="3. Query Log file" style="text;html=1;align=center;verticalAlign=middle;resizable=0;points=[];autosize=1;strokeColor=none;fillColor=none;" vertex="1" parent="1">
          <mxGeometry x="501" y="284" width="110" height="30" as="geometry" />
        </mxCell>
        <mxCell id="LVInQcv7V8ksKKJpcZ9p-1" value="4. Retrieve Logs" style="html=1;verticalAlign=bottom;endArrow=open;dashed=1;endSize=8;edgeStyle=elbowEdgeStyle;elbow=vertical;curved=0;rounded=0;" edge="1" parent="1" source="6XMBsPdUUt4wx-9Tlj5l-8">
          <mxGeometry relative="1" as="geometry">
            <mxPoint x="680" y="342.5" as="sourcePoint" />
            <mxPoint x="453" y="342.5" as="targetPoint" />
          </mxGeometry>
        </mxCell>
      </root>
    </mxGraphModel>
  </diagram>
</mxfile>
